<mxfile host="app.diagrams.net" agent="Mozilla/5.0 (Windows NT 10.0; Win64; x64; rv:131.0) Gecko/20100101 Firefox/131.0" version="24.7.17">
  <diagram name="PÃ¡gina-1" id="HGxItiI6D58sy884sVqJ">
    <mxGraphModel dx="3287" dy="1670" grid="1" gridSize="10" guides="1" tooltips="1" connect="1" arrows="1" fold="1" page="1" pageScale="1" pageWidth="850" pageHeight="1100" math="0" shadow="0">
      <root>
        <mxCell id="0" />
        <mxCell id="1" parent="0" />
        <mxCell id="gbw0nadR2lrwM5C2XNWw-2" style="edgeStyle=orthogonalEdgeStyle;rounded=0;orthogonalLoop=1;jettySize=auto;html=1;" edge="1" parent="1" source="gbw0nadR2lrwM5C2XNWw-1" target="gbw0nadR2lrwM5C2XNWw-3">
          <mxGeometry relative="1" as="geometry">
            <mxPoint x="110" y="130" as="targetPoint" />
          </mxGeometry>
        </mxCell>
        <mxCell id="gbw0nadR2lrwM5C2XNWw-1" value="findAll" style="text;html=1;align=center;verticalAlign=middle;resizable=0;points=[];autosize=1;strokeColor=none;fillColor=none;" vertex="1" parent="1">
          <mxGeometry x="80" y="48" width="60" height="30" as="geometry" />
        </mxCell>
        <mxCell id="gbw0nadR2lrwM5C2XNWw-4" style="edgeStyle=orthogonalEdgeStyle;rounded=0;orthogonalLoop=1;jettySize=auto;html=1;" edge="1" parent="1" source="gbw0nadR2lrwM5C2XNWw-3" target="gbw0nadR2lrwM5C2XNWw-5">
          <mxGeometry relative="1" as="geometry">
            <mxPoint x="40" y="190" as="targetPoint" />
            <Array as="points">
              <mxPoint x="45" y="130" />
            </Array>
          </mxGeometry>
        </mxCell>
        <mxCell id="gbw0nadR2lrwM5C2XNWw-6" value="No" style="edgeLabel;html=1;align=center;verticalAlign=middle;resizable=0;points=[];" vertex="1" connectable="0" parent="gbw0nadR2lrwM5C2XNWw-4">
          <mxGeometry x="0.3076" y="2" relative="1" as="geometry">
            <mxPoint as="offset" />
          </mxGeometry>
        </mxCell>
        <mxCell id="gbw0nadR2lrwM5C2XNWw-7" style="edgeStyle=orthogonalEdgeStyle;rounded=0;orthogonalLoop=1;jettySize=auto;html=1;" edge="1" parent="1" source="gbw0nadR2lrwM5C2XNWw-3" target="gbw0nadR2lrwM5C2XNWw-8">
          <mxGeometry relative="1" as="geometry">
            <mxPoint x="170" y="180" as="targetPoint" />
            <Array as="points">
              <mxPoint x="165" y="130" />
            </Array>
          </mxGeometry>
        </mxCell>
        <mxCell id="gbw0nadR2lrwM5C2XNWw-3" value="Buscar los expedientes" style="rhombus;whiteSpace=wrap;html=1;" vertex="1" parent="1">
          <mxGeometry x="80" y="100" width="60" height="60" as="geometry" />
        </mxCell>
        <mxCell id="gbw0nadR2lrwM5C2XNWw-5" value="Retornar Error: NotFound 404" style="rounded=0;whiteSpace=wrap;html=1;" vertex="1" parent="1">
          <mxGeometry x="10" y="180" width="70" height="35" as="geometry" />
        </mxCell>
        <mxCell id="gbw0nadR2lrwM5C2XNWw-8" value="Retornar los expedientes: Record[]" style="rounded=0;whiteSpace=wrap;html=1;" vertex="1" parent="1">
          <mxGeometry x="130" y="180" width="70" height="35" as="geometry" />
        </mxCell>
        <mxCell id="gbw0nadR2lrwM5C2XNWw-9" value="recordsService" style="text;html=1;align=center;verticalAlign=middle;resizable=0;points=[];autosize=1;strokeColor=none;fillColor=none;" vertex="1" parent="1">
          <mxGeometry x="380" y="8" width="100" height="30" as="geometry" />
        </mxCell>
        <mxCell id="gbw0nadR2lrwM5C2XNWw-11" style="edgeStyle=orthogonalEdgeStyle;rounded=0;orthogonalLoop=1;jettySize=auto;html=1;" edge="1" parent="1" source="gbw0nadR2lrwM5C2XNWw-10" target="gbw0nadR2lrwM5C2XNWw-13">
          <mxGeometry relative="1" as="geometry">
            <mxPoint x="380" y="126" as="targetPoint" />
          </mxGeometry>
        </mxCell>
        <mxCell id="gbw0nadR2lrwM5C2XNWw-10" value="&lt;div&gt;findById&lt;/div&gt;&lt;div&gt;param: recordId&lt;br&gt;&lt;/div&gt;" style="text;html=1;align=center;verticalAlign=middle;resizable=0;points=[];autosize=1;strokeColor=none;fillColor=none;" vertex="1" parent="1">
          <mxGeometry x="325" y="59" width="110" height="40" as="geometry" />
        </mxCell>
        <mxCell id="gbw0nadR2lrwM5C2XNWw-14" style="edgeStyle=orthogonalEdgeStyle;rounded=0;orthogonalLoop=1;jettySize=auto;html=1;" edge="1" parent="1" source="gbw0nadR2lrwM5C2XNWw-13" target="gbw0nadR2lrwM5C2XNWw-15">
          <mxGeometry relative="1" as="geometry">
            <mxPoint x="380" y="216" as="targetPoint" />
          </mxGeometry>
        </mxCell>
        <mxCell id="gbw0nadR2lrwM5C2XNWw-13" value="Ingresar el recordId" style="shape=parallelogram;perimeter=parallelogramPerimeter;whiteSpace=wrap;html=1;fixedSize=1;" vertex="1" parent="1">
          <mxGeometry x="330" y="121" width="100" height="50" as="geometry" />
        </mxCell>
        <mxCell id="gbw0nadR2lrwM5C2XNWw-16" style="edgeStyle=orthogonalEdgeStyle;rounded=0;orthogonalLoop=1;jettySize=auto;html=1;" edge="1" parent="1" source="gbw0nadR2lrwM5C2XNWw-15" target="gbw0nadR2lrwM5C2XNWw-18">
          <mxGeometry relative="1" as="geometry">
            <mxPoint x="310" y="296" as="targetPoint" />
            <Array as="points">
              <mxPoint x="310" y="231" />
              <mxPoint x="310" y="296" />
            </Array>
          </mxGeometry>
        </mxCell>
        <mxCell id="gbw0nadR2lrwM5C2XNWw-17" value="Si" style="edgeLabel;html=1;align=center;verticalAlign=middle;resizable=0;points=[];" vertex="1" connectable="0" parent="gbw0nadR2lrwM5C2XNWw-16">
          <mxGeometry x="0.6216" relative="1" as="geometry">
            <mxPoint as="offset" />
          </mxGeometry>
        </mxCell>
        <mxCell id="gbw0nadR2lrwM5C2XNWw-20" style="edgeStyle=orthogonalEdgeStyle;rounded=0;orthogonalLoop=1;jettySize=auto;html=1;" edge="1" parent="1" source="gbw0nadR2lrwM5C2XNWw-15" target="gbw0nadR2lrwM5C2XNWw-21">
          <mxGeometry relative="1" as="geometry">
            <mxPoint x="450" y="286.00000000000006" as="targetPoint" />
            <Array as="points">
              <mxPoint x="440" y="231" />
            </Array>
          </mxGeometry>
        </mxCell>
        <mxCell id="gbw0nadR2lrwM5C2XNWw-22" value="No" style="edgeLabel;html=1;align=center;verticalAlign=middle;resizable=0;points=[];" vertex="1" connectable="0" parent="gbw0nadR2lrwM5C2XNWw-20">
          <mxGeometry x="0.6749" y="-1" relative="1" as="geometry">
            <mxPoint as="offset" />
          </mxGeometry>
        </mxCell>
        <mxCell id="gbw0nadR2lrwM5C2XNWw-15" value="Buscar el expediente" style="rhombus;whiteSpace=wrap;html=1;" vertex="1" parent="1">
          <mxGeometry x="345" y="196" width="70" height="70" as="geometry" />
        </mxCell>
        <mxCell id="gbw0nadR2lrwM5C2XNWw-18" value="Retornar el expediente Record" style="rounded=0;whiteSpace=wrap;html=1;" vertex="1" parent="1">
          <mxGeometry x="260" y="286" width="100" height="50" as="geometry" />
        </mxCell>
        <mxCell id="gbw0nadR2lrwM5C2XNWw-21" value="Retornar Error: NotFound 404 " style="rounded=0;whiteSpace=wrap;html=1;" vertex="1" parent="1">
          <mxGeometry x="390" y="306" width="100" height="50" as="geometry" />
        </mxCell>
        <mxCell id="gbw0nadR2lrwM5C2XNWw-24" style="edgeStyle=orthogonalEdgeStyle;rounded=0;orthogonalLoop=1;jettySize=auto;html=1;" edge="1" parent="1" source="gbw0nadR2lrwM5C2XNWw-23" target="gbw0nadR2lrwM5C2XNWw-25">
          <mxGeometry relative="1" as="geometry">
            <mxPoint x="650" y="126" as="targetPoint" />
          </mxGeometry>
        </mxCell>
        <mxCell id="gbw0nadR2lrwM5C2XNWw-23" value="&lt;div&gt;findByRecordNumber&lt;/div&gt;&lt;div&gt;param: numero_expediente&lt;br&gt;&lt;/div&gt;" style="text;html=1;align=center;verticalAlign=middle;resizable=0;points=[];autosize=1;strokeColor=none;fillColor=none;" vertex="1" parent="1">
          <mxGeometry x="565" y="59" width="170" height="40" as="geometry" />
        </mxCell>
        <mxCell id="gbw0nadR2lrwM5C2XNWw-26" style="edgeStyle=orthogonalEdgeStyle;rounded=0;orthogonalLoop=1;jettySize=auto;html=1;entryX=0.5;entryY=0;entryDx=0;entryDy=0;" edge="1" parent="1" source="gbw0nadR2lrwM5C2XNWw-25" target="gbw0nadR2lrwM5C2XNWw-31">
          <mxGeometry relative="1" as="geometry">
            <mxPoint x="650" y="196" as="targetPoint" />
          </mxGeometry>
        </mxCell>
        <mxCell id="gbw0nadR2lrwM5C2XNWw-25" value="Ingresar el numero_expediente" style="shape=parallelogram;perimeter=parallelogramPerimeter;whiteSpace=wrap;html=1;fixedSize=1;" vertex="1" parent="1">
          <mxGeometry x="600" y="121" width="100" height="50" as="geometry" />
        </mxCell>
        <mxCell id="gbw0nadR2lrwM5C2XNWw-27" style="edgeStyle=orthogonalEdgeStyle;rounded=0;orthogonalLoop=1;jettySize=auto;html=1;" edge="1" parent="1" source="gbw0nadR2lrwM5C2XNWw-31" target="gbw0nadR2lrwM5C2XNWw-32">
          <mxGeometry relative="1" as="geometry">
            <mxPoint x="580" y="296" as="targetPoint" />
            <Array as="points">
              <mxPoint x="580" y="231" />
              <mxPoint x="580" y="296" />
            </Array>
          </mxGeometry>
        </mxCell>
        <mxCell id="gbw0nadR2lrwM5C2XNWw-28" value="Si" style="edgeLabel;html=1;align=center;verticalAlign=middle;resizable=0;points=[];" vertex="1" connectable="0" parent="gbw0nadR2lrwM5C2XNWw-27">
          <mxGeometry x="0.6216" relative="1" as="geometry">
            <mxPoint as="offset" />
          </mxGeometry>
        </mxCell>
        <mxCell id="gbw0nadR2lrwM5C2XNWw-29" style="edgeStyle=orthogonalEdgeStyle;rounded=0;orthogonalLoop=1;jettySize=auto;html=1;" edge="1" parent="1" source="gbw0nadR2lrwM5C2XNWw-31" target="gbw0nadR2lrwM5C2XNWw-33">
          <mxGeometry relative="1" as="geometry">
            <mxPoint x="720" y="286.00000000000006" as="targetPoint" />
          </mxGeometry>
        </mxCell>
        <mxCell id="gbw0nadR2lrwM5C2XNWw-30" value="No" style="edgeLabel;html=1;align=center;verticalAlign=middle;resizable=0;points=[];" vertex="1" connectable="0" parent="gbw0nadR2lrwM5C2XNWw-29">
          <mxGeometry x="0.6749" y="-1" relative="1" as="geometry">
            <mxPoint as="offset" />
          </mxGeometry>
        </mxCell>
        <mxCell id="gbw0nadR2lrwM5C2XNWw-31" value="Buscar el expediente" style="rhombus;whiteSpace=wrap;html=1;" vertex="1" parent="1">
          <mxGeometry x="615" y="196" width="70" height="70" as="geometry" />
        </mxCell>
        <mxCell id="gbw0nadR2lrwM5C2XNWw-32" value="Retornar el expediente Record" style="rounded=0;whiteSpace=wrap;html=1;" vertex="1" parent="1">
          <mxGeometry x="530" y="286" width="100" height="50" as="geometry" />
        </mxCell>
        <mxCell id="gbw0nadR2lrwM5C2XNWw-33" value="Retornar Error: NotFound 404 " style="rounded=0;whiteSpace=wrap;html=1;" vertex="1" parent="1">
          <mxGeometry x="690" y="286" width="100" height="50" as="geometry" />
        </mxCell>
        <mxCell id="gbw0nadR2lrwM5C2XNWw-34" style="edgeStyle=orthogonalEdgeStyle;rounded=0;orthogonalLoop=1;jettySize=auto;html=1;" edge="1" parent="1" source="gbw0nadR2lrwM5C2XNWw-35" target="gbw0nadR2lrwM5C2XNWw-37">
          <mxGeometry relative="1" as="geometry">
            <mxPoint x="130" y="387" as="targetPoint" />
          </mxGeometry>
        </mxCell>
        <mxCell id="gbw0nadR2lrwM5C2XNWw-35" value="&lt;div&gt;findBySentence&lt;/div&gt;&lt;div&gt;param: sentencia&lt;br&gt;&lt;/div&gt;" style="text;html=1;align=center;verticalAlign=middle;resizable=0;points=[];autosize=1;strokeColor=none;fillColor=none;" vertex="1" parent="1">
          <mxGeometry x="70" y="320" width="120" height="40" as="geometry" />
        </mxCell>
        <mxCell id="gbw0nadR2lrwM5C2XNWw-36" style="edgeStyle=orthogonalEdgeStyle;rounded=0;orthogonalLoop=1;jettySize=auto;html=1;" edge="1" parent="1" source="gbw0nadR2lrwM5C2XNWw-37" target="gbw0nadR2lrwM5C2XNWw-42">
          <mxGeometry relative="1" as="geometry">
            <mxPoint x="130" y="477" as="targetPoint" />
          </mxGeometry>
        </mxCell>
        <mxCell id="gbw0nadR2lrwM5C2XNWw-37" value="Ingresar la sentencia" style="shape=parallelogram;perimeter=parallelogramPerimeter;whiteSpace=wrap;html=1;fixedSize=1;" vertex="1" parent="1">
          <mxGeometry x="80" y="382" width="100" height="50" as="geometry" />
        </mxCell>
        <mxCell id="gbw0nadR2lrwM5C2XNWw-38" style="edgeStyle=orthogonalEdgeStyle;rounded=0;orthogonalLoop=1;jettySize=auto;html=1;" edge="1" parent="1" source="gbw0nadR2lrwM5C2XNWw-42" target="gbw0nadR2lrwM5C2XNWw-43">
          <mxGeometry relative="1" as="geometry">
            <mxPoint x="60" y="557" as="targetPoint" />
            <Array as="points">
              <mxPoint x="60" y="492" />
              <mxPoint x="60" y="557" />
            </Array>
          </mxGeometry>
        </mxCell>
        <mxCell id="gbw0nadR2lrwM5C2XNWw-39" value="Si" style="edgeLabel;html=1;align=center;verticalAlign=middle;resizable=0;points=[];" vertex="1" connectable="0" parent="gbw0nadR2lrwM5C2XNWw-38">
          <mxGeometry x="0.6216" relative="1" as="geometry">
            <mxPoint as="offset" />
          </mxGeometry>
        </mxCell>
        <mxCell id="gbw0nadR2lrwM5C2XNWw-40" style="edgeStyle=orthogonalEdgeStyle;rounded=0;orthogonalLoop=1;jettySize=auto;html=1;" edge="1" parent="1" source="gbw0nadR2lrwM5C2XNWw-42" target="gbw0nadR2lrwM5C2XNWw-44">
          <mxGeometry relative="1" as="geometry">
            <mxPoint x="200" y="547" as="targetPoint" />
            <Array as="points">
              <mxPoint x="190" y="492" />
            </Array>
          </mxGeometry>
        </mxCell>
        <mxCell id="gbw0nadR2lrwM5C2XNWw-41" value="No" style="edgeLabel;html=1;align=center;verticalAlign=middle;resizable=0;points=[];" vertex="1" connectable="0" parent="gbw0nadR2lrwM5C2XNWw-40">
          <mxGeometry x="0.6749" y="-1" relative="1" as="geometry">
            <mxPoint as="offset" />
          </mxGeometry>
        </mxCell>
        <mxCell id="gbw0nadR2lrwM5C2XNWw-42" value="Buscar el expediente" style="rhombus;whiteSpace=wrap;html=1;" vertex="1" parent="1">
          <mxGeometry x="95" y="457" width="70" height="70" as="geometry" />
        </mxCell>
        <mxCell id="gbw0nadR2lrwM5C2XNWw-43" value="Retornar el expediente Record" style="rounded=0;whiteSpace=wrap;html=1;" vertex="1" parent="1">
          <mxGeometry x="10" y="547" width="100" height="50" as="geometry" />
        </mxCell>
        <mxCell id="gbw0nadR2lrwM5C2XNWw-44" value="Retornar Error: NotFound 404 " style="rounded=0;whiteSpace=wrap;html=1;" vertex="1" parent="1">
          <mxGeometry x="140" y="567" width="100" height="50" as="geometry" />
        </mxCell>
        <mxCell id="gbw0nadR2lrwM5C2XNWw-45" style="edgeStyle=orthogonalEdgeStyle;rounded=0;orthogonalLoop=1;jettySize=auto;html=1;" edge="1" parent="1" source="gbw0nadR2lrwM5C2XNWw-46" target="gbw0nadR2lrwM5C2XNWw-48">
          <mxGeometry relative="1" as="geometry">
            <mxPoint x="380" y="427" as="targetPoint" />
          </mxGeometry>
        </mxCell>
        <mxCell id="gbw0nadR2lrwM5C2XNWw-46" value="&lt;div&gt;findByCourt&lt;/div&gt;&lt;div&gt;param: courtId&lt;br&gt;&lt;/div&gt;" style="text;html=1;align=center;verticalAlign=middle;resizable=0;points=[];autosize=1;strokeColor=none;fillColor=none;" vertex="1" parent="1">
          <mxGeometry x="330" y="360" width="100" height="40" as="geometry" />
        </mxCell>
        <mxCell id="gbw0nadR2lrwM5C2XNWw-47" style="edgeStyle=orthogonalEdgeStyle;rounded=0;orthogonalLoop=1;jettySize=auto;html=1;" edge="1" parent="1" source="gbw0nadR2lrwM5C2XNWw-48">
          <mxGeometry relative="1" as="geometry">
            <mxPoint x="380" y="500" as="targetPoint" />
            <Array as="points">
              <mxPoint x="380" y="490" />
              <mxPoint x="380" y="490" />
            </Array>
          </mxGeometry>
        </mxCell>
        <mxCell id="gbw0nadR2lrwM5C2XNWw-48" value="Ingresar el courtId" style="shape=parallelogram;perimeter=parallelogramPerimeter;whiteSpace=wrap;html=1;fixedSize=1;" vertex="1" parent="1">
          <mxGeometry x="330" y="422" width="100" height="50" as="geometry" />
        </mxCell>
        <mxCell id="gbw0nadR2lrwM5C2XNWw-49" style="edgeStyle=orthogonalEdgeStyle;rounded=0;orthogonalLoop=1;jettySize=auto;html=1;" edge="1" parent="1" source="gbw0nadR2lrwM5C2XNWw-53" target="gbw0nadR2lrwM5C2XNWw-54">
          <mxGeometry relative="1" as="geometry">
            <mxPoint x="315" y="684" as="targetPoint" />
            <Array as="points">
              <mxPoint x="315" y="619" />
              <mxPoint x="315" y="684" />
            </Array>
          </mxGeometry>
        </mxCell>
        <mxCell id="gbw0nadR2lrwM5C2XNWw-50" value="Si" style="edgeLabel;html=1;align=center;verticalAlign=middle;resizable=0;points=[];" vertex="1" connectable="0" parent="gbw0nadR2lrwM5C2XNWw-49">
          <mxGeometry x="0.6216" relative="1" as="geometry">
            <mxPoint as="offset" />
          </mxGeometry>
        </mxCell>
        <mxCell id="gbw0nadR2lrwM5C2XNWw-51" style="edgeStyle=orthogonalEdgeStyle;rounded=0;orthogonalLoop=1;jettySize=auto;html=1;" edge="1" parent="1" source="gbw0nadR2lrwM5C2XNWw-53" target="gbw0nadR2lrwM5C2XNWw-55">
          <mxGeometry relative="1" as="geometry">
            <mxPoint x="455" y="674" as="targetPoint" />
            <Array as="points">
              <mxPoint x="445" y="619" />
            </Array>
          </mxGeometry>
        </mxCell>
        <mxCell id="gbw0nadR2lrwM5C2XNWw-52" value="No" style="edgeLabel;html=1;align=center;verticalAlign=middle;resizable=0;points=[];" vertex="1" connectable="0" parent="gbw0nadR2lrwM5C2XNWw-51">
          <mxGeometry x="0.6749" y="-1" relative="1" as="geometry">
            <mxPoint as="offset" />
          </mxGeometry>
        </mxCell>
        <mxCell id="gbw0nadR2lrwM5C2XNWw-53" value="Buscar los expedientes" style="rhombus;whiteSpace=wrap;html=1;" vertex="1" parent="1">
          <mxGeometry x="345" y="597" width="70" height="70" as="geometry" />
        </mxCell>
        <mxCell id="gbw0nadR2lrwM5C2XNWw-54" value="Retornar los expedientes Record[]" style="rounded=0;whiteSpace=wrap;html=1;" vertex="1" parent="1">
          <mxGeometry x="265" y="674" width="100" height="50" as="geometry" />
        </mxCell>
        <mxCell id="gbw0nadR2lrwM5C2XNWw-55" value="Retornar Error: NotFound 404 " style="rounded=0;whiteSpace=wrap;html=1;" vertex="1" parent="1">
          <mxGeometry x="395" y="694" width="100" height="50" as="geometry" />
        </mxCell>
        <mxCell id="gbw0nadR2lrwM5C2XNWw-57" style="edgeStyle=orthogonalEdgeStyle;rounded=0;orthogonalLoop=1;jettySize=auto;html=1;" edge="1" parent="1" source="gbw0nadR2lrwM5C2XNWw-56" target="gbw0nadR2lrwM5C2XNWw-59">
          <mxGeometry relative="1" as="geometry">
            <mxPoint x="300" y="532" as="targetPoint" />
          </mxGeometry>
        </mxCell>
        <mxCell id="gbw0nadR2lrwM5C2XNWw-58" value="No" style="edgeLabel;html=1;align=center;verticalAlign=middle;resizable=0;points=[];" vertex="1" connectable="0" parent="gbw0nadR2lrwM5C2XNWw-57">
          <mxGeometry x="-0.2664" y="1" relative="1" as="geometry">
            <mxPoint as="offset" />
          </mxGeometry>
        </mxCell>
        <mxCell id="gbw0nadR2lrwM5C2XNWw-60" style="edgeStyle=orthogonalEdgeStyle;rounded=0;orthogonalLoop=1;jettySize=auto;html=1;entryX=0.5;entryY=0;entryDx=0;entryDy=0;" edge="1" parent="1" source="gbw0nadR2lrwM5C2XNWw-56" target="gbw0nadR2lrwM5C2XNWw-53">
          <mxGeometry relative="1" as="geometry" />
        </mxCell>
        <mxCell id="gbw0nadR2lrwM5C2XNWw-61" value="Si" style="edgeLabel;html=1;align=center;verticalAlign=middle;resizable=0;points=[];" vertex="1" connectable="0" parent="gbw0nadR2lrwM5C2XNWw-60">
          <mxGeometry x="0.2923" y="-1" relative="1" as="geometry">
            <mxPoint as="offset" />
          </mxGeometry>
        </mxCell>
        <mxCell id="gbw0nadR2lrwM5C2XNWw-56" value="Buscar el tribunal" style="rhombus;whiteSpace=wrap;html=1;" vertex="1" parent="1">
          <mxGeometry x="345" y="497" width="70" height="70" as="geometry" />
        </mxCell>
        <mxCell id="gbw0nadR2lrwM5C2XNWw-59" value="Retornar Error: NotFound 404" style="rounded=0;whiteSpace=wrap;html=1;" vertex="1" parent="1">
          <mxGeometry x="240" y="515" width="70" height="35" as="geometry" />
        </mxCell>
        <mxCell id="gbw0nadR2lrwM5C2XNWw-79" style="edgeStyle=orthogonalEdgeStyle;rounded=0;orthogonalLoop=1;jettySize=auto;html=1;" edge="1" parent="1" source="gbw0nadR2lrwM5C2XNWw-80" target="gbw0nadR2lrwM5C2XNWw-82">
          <mxGeometry relative="1" as="geometry">
            <mxPoint x="670" y="437" as="targetPoint" />
          </mxGeometry>
        </mxCell>
        <mxCell id="gbw0nadR2lrwM5C2XNWw-80" value="&lt;div&gt;findByBox&lt;/div&gt;&lt;div&gt;param: boxId&lt;br&gt;&lt;/div&gt;" style="text;html=1;align=center;verticalAlign=middle;resizable=0;points=[];autosize=1;strokeColor=none;fillColor=none;" vertex="1" parent="1">
          <mxGeometry x="625" y="370" width="90" height="40" as="geometry" />
        </mxCell>
        <mxCell id="gbw0nadR2lrwM5C2XNWw-81" style="edgeStyle=orthogonalEdgeStyle;rounded=0;orthogonalLoop=1;jettySize=auto;html=1;" edge="1" parent="1" source="gbw0nadR2lrwM5C2XNWw-82">
          <mxGeometry relative="1" as="geometry">
            <mxPoint x="670" y="510" as="targetPoint" />
            <Array as="points">
              <mxPoint x="670" y="500" />
              <mxPoint x="670" y="500" />
            </Array>
          </mxGeometry>
        </mxCell>
        <mxCell id="gbw0nadR2lrwM5C2XNWw-82" value="Ingresar el boxId" style="shape=parallelogram;perimeter=parallelogramPerimeter;whiteSpace=wrap;html=1;fixedSize=1;" vertex="1" parent="1">
          <mxGeometry x="620" y="432" width="100" height="50" as="geometry" />
        </mxCell>
        <mxCell id="gbw0nadR2lrwM5C2XNWw-83" style="edgeStyle=orthogonalEdgeStyle;rounded=0;orthogonalLoop=1;jettySize=auto;html=1;" edge="1" parent="1" source="gbw0nadR2lrwM5C2XNWw-87" target="gbw0nadR2lrwM5C2XNWw-88">
          <mxGeometry relative="1" as="geometry">
            <mxPoint x="605" y="694" as="targetPoint" />
            <Array as="points">
              <mxPoint x="605" y="629" />
              <mxPoint x="605" y="694" />
            </Array>
          </mxGeometry>
        </mxCell>
        <mxCell id="gbw0nadR2lrwM5C2XNWw-84" value="Si" style="edgeLabel;html=1;align=center;verticalAlign=middle;resizable=0;points=[];" vertex="1" connectable="0" parent="gbw0nadR2lrwM5C2XNWw-83">
          <mxGeometry x="0.6216" relative="1" as="geometry">
            <mxPoint as="offset" />
          </mxGeometry>
        </mxCell>
        <mxCell id="gbw0nadR2lrwM5C2XNWw-85" style="edgeStyle=orthogonalEdgeStyle;rounded=0;orthogonalLoop=1;jettySize=auto;html=1;" edge="1" parent="1" source="gbw0nadR2lrwM5C2XNWw-87" target="gbw0nadR2lrwM5C2XNWw-89">
          <mxGeometry relative="1" as="geometry">
            <mxPoint x="745" y="684" as="targetPoint" />
            <Array as="points">
              <mxPoint x="735" y="629" />
            </Array>
          </mxGeometry>
        </mxCell>
        <mxCell id="gbw0nadR2lrwM5C2XNWw-86" value="No" style="edgeLabel;html=1;align=center;verticalAlign=middle;resizable=0;points=[];" vertex="1" connectable="0" parent="gbw0nadR2lrwM5C2XNWw-85">
          <mxGeometry x="0.6749" y="-1" relative="1" as="geometry">
            <mxPoint as="offset" />
          </mxGeometry>
        </mxCell>
        <mxCell id="gbw0nadR2lrwM5C2XNWw-87" value="Buscar los expedientes" style="rhombus;whiteSpace=wrap;html=1;" vertex="1" parent="1">
          <mxGeometry x="635" y="607" width="70" height="70" as="geometry" />
        </mxCell>
        <mxCell id="gbw0nadR2lrwM5C2XNWw-88" value="Retornar los expedientes Record[]" style="rounded=0;whiteSpace=wrap;html=1;" vertex="1" parent="1">
          <mxGeometry x="555" y="684" width="100" height="50" as="geometry" />
        </mxCell>
        <mxCell id="gbw0nadR2lrwM5C2XNWw-89" value="Retornar Error: NotFound 404 " style="rounded=0;whiteSpace=wrap;html=1;" vertex="1" parent="1">
          <mxGeometry x="685" y="704" width="100" height="50" as="geometry" />
        </mxCell>
        <mxCell id="gbw0nadR2lrwM5C2XNWw-90" style="edgeStyle=orthogonalEdgeStyle;rounded=0;orthogonalLoop=1;jettySize=auto;html=1;" edge="1" parent="1" source="gbw0nadR2lrwM5C2XNWw-94" target="gbw0nadR2lrwM5C2XNWw-95">
          <mxGeometry relative="1" as="geometry">
            <mxPoint x="590" y="542" as="targetPoint" />
          </mxGeometry>
        </mxCell>
        <mxCell id="gbw0nadR2lrwM5C2XNWw-91" value="No" style="edgeLabel;html=1;align=center;verticalAlign=middle;resizable=0;points=[];" vertex="1" connectable="0" parent="gbw0nadR2lrwM5C2XNWw-90">
          <mxGeometry x="-0.2664" y="1" relative="1" as="geometry">
            <mxPoint as="offset" />
          </mxGeometry>
        </mxCell>
        <mxCell id="gbw0nadR2lrwM5C2XNWw-92" style="edgeStyle=orthogonalEdgeStyle;rounded=0;orthogonalLoop=1;jettySize=auto;html=1;entryX=0.5;entryY=0;entryDx=0;entryDy=0;" edge="1" parent="1" source="gbw0nadR2lrwM5C2XNWw-94" target="gbw0nadR2lrwM5C2XNWw-87">
          <mxGeometry relative="1" as="geometry" />
        </mxCell>
        <mxCell id="gbw0nadR2lrwM5C2XNWw-93" value="Si" style="edgeLabel;html=1;align=center;verticalAlign=middle;resizable=0;points=[];" vertex="1" connectable="0" parent="gbw0nadR2lrwM5C2XNWw-92">
          <mxGeometry x="0.2923" y="-1" relative="1" as="geometry">
            <mxPoint as="offset" />
          </mxGeometry>
        </mxCell>
        <mxCell id="gbw0nadR2lrwM5C2XNWw-94" value="Buscar la caja" style="rhombus;whiteSpace=wrap;html=1;" vertex="1" parent="1">
          <mxGeometry x="635" y="507" width="70" height="70" as="geometry" />
        </mxCell>
        <mxCell id="gbw0nadR2lrwM5C2XNWw-95" value="Retornar Error: NotFound 404" style="rounded=0;whiteSpace=wrap;html=1;" vertex="1" parent="1">
          <mxGeometry x="530" y="525" width="70" height="35" as="geometry" />
        </mxCell>
        <mxCell id="gbw0nadR2lrwM5C2XNWw-96" style="edgeStyle=orthogonalEdgeStyle;rounded=0;orthogonalLoop=1;jettySize=auto;html=1;" edge="1" parent="1" source="gbw0nadR2lrwM5C2XNWw-97" target="gbw0nadR2lrwM5C2XNWw-99">
          <mxGeometry relative="1" as="geometry">
            <mxPoint x="130" y="801" as="targetPoint" />
          </mxGeometry>
        </mxCell>
        <mxCell id="gbw0nadR2lrwM5C2XNWw-97" value="&lt;div&gt;findByStatus&lt;/div&gt;&lt;div&gt;body: estado&lt;br&gt;&lt;/div&gt;" style="text;html=1;align=center;verticalAlign=middle;resizable=0;points=[];autosize=1;strokeColor=none;fillColor=none;" vertex="1" parent="1">
          <mxGeometry x="85" y="734" width="90" height="40" as="geometry" />
        </mxCell>
        <mxCell id="gbw0nadR2lrwM5C2XNWw-98" style="edgeStyle=orthogonalEdgeStyle;rounded=0;orthogonalLoop=1;jettySize=auto;html=1;entryX=0.5;entryY=0;entryDx=0;entryDy=0;" edge="1" parent="1" source="gbw0nadR2lrwM5C2XNWw-99" target="gbw0nadR2lrwM5C2XNWw-104">
          <mxGeometry relative="1" as="geometry">
            <mxPoint x="130" y="871" as="targetPoint" />
          </mxGeometry>
        </mxCell>
        <mxCell id="gbw0nadR2lrwM5C2XNWw-99" value="Ingresar el estado" style="shape=parallelogram;perimeter=parallelogramPerimeter;whiteSpace=wrap;html=1;fixedSize=1;" vertex="1" parent="1">
          <mxGeometry x="80" y="796" width="100" height="50" as="geometry" />
        </mxCell>
        <mxCell id="gbw0nadR2lrwM5C2XNWw-100" style="edgeStyle=orthogonalEdgeStyle;rounded=0;orthogonalLoop=1;jettySize=auto;html=1;" edge="1" parent="1" source="gbw0nadR2lrwM5C2XNWw-104" target="gbw0nadR2lrwM5C2XNWw-105">
          <mxGeometry relative="1" as="geometry">
            <mxPoint x="60" y="971" as="targetPoint" />
            <Array as="points">
              <mxPoint x="60" y="906" />
              <mxPoint x="60" y="971" />
            </Array>
          </mxGeometry>
        </mxCell>
        <mxCell id="gbw0nadR2lrwM5C2XNWw-101" value="Si" style="edgeLabel;html=1;align=center;verticalAlign=middle;resizable=0;points=[];" vertex="1" connectable="0" parent="gbw0nadR2lrwM5C2XNWw-100">
          <mxGeometry x="0.6216" relative="1" as="geometry">
            <mxPoint as="offset" />
          </mxGeometry>
        </mxCell>
        <mxCell id="gbw0nadR2lrwM5C2XNWw-102" style="edgeStyle=orthogonalEdgeStyle;rounded=0;orthogonalLoop=1;jettySize=auto;html=1;" edge="1" parent="1" source="gbw0nadR2lrwM5C2XNWw-104" target="gbw0nadR2lrwM5C2XNWw-106">
          <mxGeometry relative="1" as="geometry">
            <mxPoint x="200" y="961" as="targetPoint" />
          </mxGeometry>
        </mxCell>
        <mxCell id="gbw0nadR2lrwM5C2XNWw-103" value="No" style="edgeLabel;html=1;align=center;verticalAlign=middle;resizable=0;points=[];" vertex="1" connectable="0" parent="gbw0nadR2lrwM5C2XNWw-102">
          <mxGeometry x="0.6749" y="-1" relative="1" as="geometry">
            <mxPoint as="offset" />
          </mxGeometry>
        </mxCell>
        <mxCell id="gbw0nadR2lrwM5C2XNWw-104" value="Buscar los expedientes" style="rhombus;whiteSpace=wrap;html=1;" vertex="1" parent="1">
          <mxGeometry x="95" y="871" width="70" height="70" as="geometry" />
        </mxCell>
        <mxCell id="gbw0nadR2lrwM5C2XNWw-105" value="Retornar los expedientes Record[]" style="rounded=0;whiteSpace=wrap;html=1;" vertex="1" parent="1">
          <mxGeometry x="10" y="961" width="100" height="50" as="geometry" />
        </mxCell>
        <mxCell id="gbw0nadR2lrwM5C2XNWw-106" value="Retornar Error: NotFound 404 " style="rounded=0;whiteSpace=wrap;html=1;" vertex="1" parent="1">
          <mxGeometry x="170" y="961" width="100" height="50" as="geometry" />
        </mxCell>
        <mxCell id="gbw0nadR2lrwM5C2XNWw-108" style="edgeStyle=orthogonalEdgeStyle;rounded=0;orthogonalLoop=1;jettySize=auto;html=1;" edge="1" parent="1" source="gbw0nadR2lrwM5C2XNWw-107" target="gbw0nadR2lrwM5C2XNWw-109">
          <mxGeometry relative="1" as="geometry">
            <mxPoint x="240" y="1200" as="targetPoint" />
          </mxGeometry>
        </mxCell>
        <mxCell id="gbw0nadR2lrwM5C2XNWw-107" value="&lt;div&gt;create&lt;/div&gt;&lt;div&gt;body: createRecordDto&lt;br&gt;&lt;/div&gt;" style="text;html=1;align=center;verticalAlign=middle;resizable=0;points=[];autosize=1;strokeColor=none;fillColor=none;" vertex="1" parent="1">
          <mxGeometry x="165" y="1130" width="150" height="40" as="geometry" />
        </mxCell>
        <mxCell id="gbw0nadR2lrwM5C2XNWw-110" style="edgeStyle=orthogonalEdgeStyle;rounded=0;orthogonalLoop=1;jettySize=auto;html=1;" edge="1" parent="1" source="gbw0nadR2lrwM5C2XNWw-109" target="gbw0nadR2lrwM5C2XNWw-111">
          <mxGeometry relative="1" as="geometry">
            <mxPoint x="240" y="1290" as="targetPoint" />
          </mxGeometry>
        </mxCell>
        <mxCell id="gbw0nadR2lrwM5C2XNWw-109" value="Ingresar el createRecordDto" style="shape=parallelogram;perimeter=parallelogramPerimeter;whiteSpace=wrap;html=1;fixedSize=1;" vertex="1" parent="1">
          <mxGeometry x="190" y="1200" width="100" height="50" as="geometry" />
        </mxCell>
        <mxCell id="gbw0nadR2lrwM5C2XNWw-112" style="edgeStyle=orthogonalEdgeStyle;rounded=0;orthogonalLoop=1;jettySize=auto;html=1;" edge="1" parent="1" source="gbw0nadR2lrwM5C2XNWw-111" target="gbw0nadR2lrwM5C2XNWw-115">
          <mxGeometry relative="1" as="geometry">
            <mxPoint x="120" y="1330" as="targetPoint" />
          </mxGeometry>
        </mxCell>
        <mxCell id="gbw0nadR2lrwM5C2XNWw-114" value="No" style="edgeLabel;html=1;align=center;verticalAlign=middle;resizable=0;points=[];" vertex="1" connectable="0" parent="gbw0nadR2lrwM5C2XNWw-112">
          <mxGeometry x="-0.0017" relative="1" as="geometry">
            <mxPoint as="offset" />
          </mxGeometry>
        </mxCell>
        <mxCell id="gbw0nadR2lrwM5C2XNWw-113" style="edgeStyle=orthogonalEdgeStyle;rounded=0;orthogonalLoop=1;jettySize=auto;html=1;" edge="1" parent="1" source="gbw0nadR2lrwM5C2XNWw-111" target="gbw0nadR2lrwM5C2XNWw-140">
          <mxGeometry relative="1" as="geometry">
            <mxPoint x="240" y="1410" as="targetPoint" />
          </mxGeometry>
        </mxCell>
        <mxCell id="gbw0nadR2lrwM5C2XNWw-116" value="Si" style="edgeLabel;html=1;align=center;verticalAlign=middle;resizable=0;points=[];" vertex="1" connectable="0" parent="gbw0nadR2lrwM5C2XNWw-113">
          <mxGeometry x="-0.2613" relative="1" as="geometry">
            <mxPoint y="-8" as="offset" />
          </mxGeometry>
        </mxCell>
        <mxCell id="gbw0nadR2lrwM5C2XNWw-111" value="Buscar la caja del createRecordDto&lt;br&gt;por numero_caja" style="rhombus;whiteSpace=wrap;html=1;" vertex="1" parent="1">
          <mxGeometry x="200" y="1290" width="80" height="80" as="geometry" />
        </mxCell>
        <mxCell id="gbw0nadR2lrwM5C2XNWw-117" style="edgeStyle=orthogonalEdgeStyle;rounded=0;orthogonalLoop=1;jettySize=auto;html=1;" edge="1" parent="1" source="gbw0nadR2lrwM5C2XNWw-115" target="gbw0nadR2lrwM5C2XNWw-118">
          <mxGeometry relative="1" as="geometry">
            <mxPoint x="100" y="1400" as="targetPoint" />
          </mxGeometry>
        </mxCell>
        <mxCell id="gbw0nadR2lrwM5C2XNWw-115" value="La caja no existe, crear la caja" style="rounded=0;whiteSpace=wrap;html=1;" vertex="1" parent="1">
          <mxGeometry x="60" y="1310" width="80" height="40" as="geometry" />
        </mxCell>
        <mxCell id="gbw0nadR2lrwM5C2XNWw-119" style="edgeStyle=orthogonalEdgeStyle;rounded=0;orthogonalLoop=1;jettySize=auto;html=1;" edge="1" parent="1" source="gbw0nadR2lrwM5C2XNWw-118" target="gbw0nadR2lrwM5C2XNWw-121">
          <mxGeometry relative="1" as="geometry">
            <mxPoint x="20" y="1490" as="targetPoint" />
          </mxGeometry>
        </mxCell>
        <mxCell id="gbw0nadR2lrwM5C2XNWw-120" value="No" style="edgeLabel;html=1;align=center;verticalAlign=middle;resizable=0;points=[];" vertex="1" connectable="0" parent="gbw0nadR2lrwM5C2XNWw-119">
          <mxGeometry x="0.4642" y="3" relative="1" as="geometry">
            <mxPoint as="offset" />
          </mxGeometry>
        </mxCell>
        <mxCell id="gbw0nadR2lrwM5C2XNWw-122" style="edgeStyle=orthogonalEdgeStyle;rounded=0;orthogonalLoop=1;jettySize=auto;html=1;entryX=0.5;entryY=0;entryDx=0;entryDy=0;" edge="1" parent="1" source="gbw0nadR2lrwM5C2XNWw-118" target="gbw0nadR2lrwM5C2XNWw-124">
          <mxGeometry relative="1" as="geometry">
            <mxPoint x="125" y="1540" as="targetPoint" />
          </mxGeometry>
        </mxCell>
        <mxCell id="gbw0nadR2lrwM5C2XNWw-123" value="Si" style="edgeLabel;html=1;align=center;verticalAlign=middle;resizable=0;points=[];" vertex="1" connectable="0" parent="gbw0nadR2lrwM5C2XNWw-122">
          <mxGeometry x="-0.3543" y="-1" relative="1" as="geometry">
            <mxPoint as="offset" />
          </mxGeometry>
        </mxCell>
        <mxCell id="gbw0nadR2lrwM5C2XNWw-118" value="Buscar el tribunal del createRecordDto" style="rhombus;whiteSpace=wrap;html=1;" vertex="1" parent="1">
          <mxGeometry x="85" y="1380" width="80" height="80" as="geometry" />
        </mxCell>
        <mxCell id="gbw0nadR2lrwM5C2XNWw-121" value="Retornar Error: NotFound 404" style="rounded=0;whiteSpace=wrap;html=1;" vertex="1" parent="1">
          <mxGeometry x="10" y="1480" width="70" height="35" as="geometry" />
        </mxCell>
        <mxCell id="gbw0nadR2lrwM5C2XNWw-125" style="edgeStyle=orthogonalEdgeStyle;rounded=0;orthogonalLoop=1;jettySize=auto;html=1;" edge="1" parent="1" source="gbw0nadR2lrwM5C2XNWw-124" target="gbw0nadR2lrwM5C2XNWw-126">
          <mxGeometry relative="1" as="geometry">
            <mxPoint x="125" y="1600" as="targetPoint" />
          </mxGeometry>
        </mxCell>
        <mxCell id="gbw0nadR2lrwM5C2XNWw-124" value="Crear la caja" style="rounded=0;whiteSpace=wrap;html=1;" vertex="1" parent="1">
          <mxGeometry x="72.5" y="1530" width="105" height="40" as="geometry" />
        </mxCell>
        <mxCell id="gbw0nadR2lrwM5C2XNWw-127" style="edgeStyle=orthogonalEdgeStyle;rounded=0;orthogonalLoop=1;jettySize=auto;html=1;" edge="1" parent="1" source="gbw0nadR2lrwM5C2XNWw-126" target="gbw0nadR2lrwM5C2XNWw-128">
          <mxGeometry relative="1" as="geometry">
            <mxPoint x="125" y="1680" as="targetPoint" />
          </mxGeometry>
        </mxCell>
        <mxCell id="gbw0nadR2lrwM5C2XNWw-126" value="Validar los datos del createRecordDto y crear el expediente" style="rounded=0;whiteSpace=wrap;html=1;" vertex="1" parent="1">
          <mxGeometry x="72.5" y="1598" width="105" height="52.5" as="geometry" />
        </mxCell>
        <mxCell id="gbw0nadR2lrwM5C2XNWw-129" style="edgeStyle=orthogonalEdgeStyle;rounded=0;orthogonalLoop=1;jettySize=auto;html=1;" edge="1" parent="1" source="gbw0nadR2lrwM5C2XNWw-128" target="gbw0nadR2lrwM5C2XNWw-130">
          <mxGeometry relative="1" as="geometry">
            <mxPoint x="125" y="1750" as="targetPoint" />
          </mxGeometry>
        </mxCell>
        <mxCell id="gbw0nadR2lrwM5C2XNWw-128" value="Agregar el nuevo expediente a la nueva caja" style="rounded=0;whiteSpace=wrap;html=1;" vertex="1" parent="1">
          <mxGeometry x="72.5" y="1670" width="105" height="52.5" as="geometry" />
        </mxCell>
        <mxCell id="gbw0nadR2lrwM5C2XNWw-130" value="Retornar el nuevo expediente Record[]" style="rounded=0;whiteSpace=wrap;html=1;" vertex="1" parent="1">
          <mxGeometry x="77.5" y="1750" width="95" height="47.5" as="geometry" />
        </mxCell>
        <mxCell id="gbw0nadR2lrwM5C2XNWw-132" style="edgeStyle=orthogonalEdgeStyle;rounded=0;orthogonalLoop=1;jettySize=auto;html=1;" edge="1" parent="1" source="gbw0nadR2lrwM5C2XNWw-131" target="gbw0nadR2lrwM5C2XNWw-133">
          <mxGeometry relative="1" as="geometry">
            <mxPoint x="240" y="1617.5" as="targetPoint" />
          </mxGeometry>
        </mxCell>
        <mxCell id="gbw0nadR2lrwM5C2XNWw-131" value="Validar el createRecordDto y crear el expediente" style="rounded=0;whiteSpace=wrap;html=1;" vertex="1" parent="1">
          <mxGeometry x="190" y="1540" width="100" height="50" as="geometry" />
        </mxCell>
        <mxCell id="gbw0nadR2lrwM5C2XNWw-134" style="edgeStyle=orthogonalEdgeStyle;rounded=0;orthogonalLoop=1;jettySize=auto;html=1;" edge="1" parent="1" source="gbw0nadR2lrwM5C2XNWw-133" target="gbw0nadR2lrwM5C2XNWw-147">
          <mxGeometry relative="1" as="geometry">
            <mxPoint x="240" y="1687.5" as="targetPoint" />
          </mxGeometry>
        </mxCell>
        <mxCell id="gbw0nadR2lrwM5C2XNWw-133" value="Agregar el nuevo expediente a la caja encontrada" style="rounded=0;whiteSpace=wrap;html=1;" vertex="1" parent="1">
          <mxGeometry x="190" y="1607.5" width="100" height="50" as="geometry" />
        </mxCell>
        <mxCell id="gbw0nadR2lrwM5C2XNWw-141" style="edgeStyle=orthogonalEdgeStyle;rounded=0;orthogonalLoop=1;jettySize=auto;html=1;" edge="1" parent="1" source="gbw0nadR2lrwM5C2XNWw-140" target="gbw0nadR2lrwM5C2XNWw-144">
          <mxGeometry relative="1" as="geometry">
            <mxPoint x="330" y="1420" as="targetPoint" />
          </mxGeometry>
        </mxCell>
        <mxCell id="gbw0nadR2lrwM5C2XNWw-142" value="No" style="edgeLabel;html=1;align=center;verticalAlign=middle;resizable=0;points=[];" vertex="1" connectable="0" parent="gbw0nadR2lrwM5C2XNWw-141">
          <mxGeometry x="0.2182" relative="1" as="geometry">
            <mxPoint x="-11" y="-10" as="offset" />
          </mxGeometry>
        </mxCell>
        <mxCell id="gbw0nadR2lrwM5C2XNWw-145" style="edgeStyle=orthogonalEdgeStyle;rounded=0;orthogonalLoop=1;jettySize=auto;html=1;entryX=0.5;entryY=0;entryDx=0;entryDy=0;" edge="1" parent="1" source="gbw0nadR2lrwM5C2XNWw-140" target="gbw0nadR2lrwM5C2XNWw-148">
          <mxGeometry relative="1" as="geometry">
            <mxPoint x="240" y="1470" as="targetPoint" />
            <Array as="points" />
          </mxGeometry>
        </mxCell>
        <mxCell id="gbw0nadR2lrwM5C2XNWw-140" value="Buscar el tribunal" style="rhombus;whiteSpace=wrap;html=1;" vertex="1" parent="1">
          <mxGeometry x="210" y="1390" width="60" height="60" as="geometry" />
        </mxCell>
        <mxCell id="gbw0nadR2lrwM5C2XNWw-144" value="Retornar Error: NotFound 404" style="rounded=0;whiteSpace=wrap;html=1;" vertex="1" parent="1">
          <mxGeometry x="305" y="1401.25" width="75" height="37.5" as="geometry" />
        </mxCell>
        <mxCell id="gbw0nadR2lrwM5C2XNWw-146" value="Si" style="text;html=1;align=center;verticalAlign=middle;resizable=0;points=[];autosize=1;strokeColor=none;fillColor=none;" vertex="1" parent="1">
          <mxGeometry x="250" y="1438.75" width="30" height="30" as="geometry" />
        </mxCell>
        <mxCell id="gbw0nadR2lrwM5C2XNWw-147" value="Retornar el nuevo expediente: Record" style="rounded=0;whiteSpace=wrap;html=1;" vertex="1" parent="1">
          <mxGeometry x="195" y="1687.5" width="90" height="45" as="geometry" />
        </mxCell>
        <mxCell id="gbw0nadR2lrwM5C2XNWw-149" style="edgeStyle=orthogonalEdgeStyle;rounded=0;orthogonalLoop=1;jettySize=auto;html=1;entryX=0.5;entryY=0;entryDx=0;entryDy=0;" edge="1" parent="1" source="gbw0nadR2lrwM5C2XNWw-148" target="gbw0nadR2lrwM5C2XNWw-131">
          <mxGeometry relative="1" as="geometry" />
        </mxCell>
        <mxCell id="gbw0nadR2lrwM5C2XNWw-153" value="Si" style="edgeLabel;html=1;align=center;verticalAlign=middle;resizable=0;points=[];" vertex="1" connectable="0" parent="gbw0nadR2lrwM5C2XNWw-149">
          <mxGeometry x="0.4678" relative="1" as="geometry">
            <mxPoint x="10" y="5" as="offset" />
          </mxGeometry>
        </mxCell>
        <mxCell id="gbw0nadR2lrwM5C2XNWw-150" style="edgeStyle=orthogonalEdgeStyle;rounded=0;orthogonalLoop=1;jettySize=auto;html=1;" edge="1" parent="1" source="gbw0nadR2lrwM5C2XNWw-148" target="gbw0nadR2lrwM5C2XNWw-152">
          <mxGeometry relative="1" as="geometry">
            <mxPoint x="320" y="1495" as="targetPoint" />
          </mxGeometry>
        </mxCell>
        <mxCell id="gbw0nadR2lrwM5C2XNWw-151" value="No" style="edgeLabel;html=1;align=center;verticalAlign=middle;resizable=0;points=[];" vertex="1" connectable="0" parent="gbw0nadR2lrwM5C2XNWw-150">
          <mxGeometry x="-0.3163" y="1" relative="1" as="geometry">
            <mxPoint as="offset" />
          </mxGeometry>
        </mxCell>
        <mxCell id="gbw0nadR2lrwM5C2XNWw-148" value="&lt;font style=&quot;font-size: 7px;&quot;&gt;Validar que el tribunal de la caja y el tribunal del createRecordDto son iguales&lt;br&gt;&lt;/font&gt;" style="rounded=1;whiteSpace=wrap;html=1;" vertex="1" parent="1">
          <mxGeometry x="200" y="1475" width="80" height="40" as="geometry" />
        </mxCell>
        <mxCell id="gbw0nadR2lrwM5C2XNWw-152" value="Retornar Error: NotFound 404" style="rounded=0;whiteSpace=wrap;html=1;" vertex="1" parent="1">
          <mxGeometry x="320" y="1475" width="90" height="40" as="geometry" />
        </mxCell>
        <mxCell id="gbw0nadR2lrwM5C2XNWw-155" style="edgeStyle=orthogonalEdgeStyle;rounded=0;orthogonalLoop=1;jettySize=auto;html=1;" edge="1" parent="1" source="gbw0nadR2lrwM5C2XNWw-154" target="gbw0nadR2lrwM5C2XNWw-156">
          <mxGeometry relative="1" as="geometry">
            <mxPoint x="670" y="1230" as="targetPoint" />
          </mxGeometry>
        </mxCell>
        <mxCell id="gbw0nadR2lrwM5C2XNWw-154" value="&lt;div&gt;update&lt;/div&gt;&lt;div&gt;param: recordId&lt;/div&gt;&lt;div&gt;body: updateRecordDto&lt;br&gt;&lt;/div&gt;" style="text;html=1;align=center;verticalAlign=middle;resizable=0;points=[];autosize=1;strokeColor=none;fillColor=none;" vertex="1" parent="1">
          <mxGeometry x="595" y="1143" width="150" height="60" as="geometry" />
        </mxCell>
        <mxCell id="gbw0nadR2lrwM5C2XNWw-157" style="edgeStyle=orthogonalEdgeStyle;rounded=0;orthogonalLoop=1;jettySize=auto;html=1;" edge="1" parent="1" source="gbw0nadR2lrwM5C2XNWw-156" target="gbw0nadR2lrwM5C2XNWw-158">
          <mxGeometry relative="1" as="geometry">
            <mxPoint x="675" y="1320" as="targetPoint" />
          </mxGeometry>
        </mxCell>
        <mxCell id="gbw0nadR2lrwM5C2XNWw-156" value="Ingresar el recordId y el updateRecordDto" style="shape=parallelogram;perimeter=parallelogramPerimeter;whiteSpace=wrap;html=1;fixedSize=1;" vertex="1" parent="1">
          <mxGeometry x="620" y="1230" width="110" height="50" as="geometry" />
        </mxCell>
        <mxCell id="gbw0nadR2lrwM5C2XNWw-159" style="edgeStyle=orthogonalEdgeStyle;rounded=0;orthogonalLoop=1;jettySize=auto;html=1;" edge="1" parent="1" source="gbw0nadR2lrwM5C2XNWw-158" target="gbw0nadR2lrwM5C2XNWw-160">
          <mxGeometry relative="1" as="geometry">
            <mxPoint x="560" y="1357.5" as="targetPoint" />
          </mxGeometry>
        </mxCell>
        <mxCell id="gbw0nadR2lrwM5C2XNWw-161" value="No" style="edgeLabel;html=1;align=center;verticalAlign=middle;resizable=0;points=[];" vertex="1" connectable="0" parent="gbw0nadR2lrwM5C2XNWw-159">
          <mxGeometry x="-0.0609" y="-2" relative="1" as="geometry">
            <mxPoint y="-1" as="offset" />
          </mxGeometry>
        </mxCell>
        <mxCell id="gbw0nadR2lrwM5C2XNWw-162" style="edgeStyle=orthogonalEdgeStyle;rounded=0;orthogonalLoop=1;jettySize=auto;html=1;" edge="1" parent="1" source="gbw0nadR2lrwM5C2XNWw-158" target="gbw0nadR2lrwM5C2XNWw-164">
          <mxGeometry relative="1" as="geometry">
            <mxPoint x="675" y="1450" as="targetPoint" />
          </mxGeometry>
        </mxCell>
        <mxCell id="gbw0nadR2lrwM5C2XNWw-163" value="Si" style="edgeLabel;html=1;align=center;verticalAlign=middle;resizable=0;points=[];" vertex="1" connectable="0" parent="gbw0nadR2lrwM5C2XNWw-162">
          <mxGeometry x="-0.1968" y="3" relative="1" as="geometry">
            <mxPoint as="offset" />
          </mxGeometry>
        </mxCell>
        <mxCell id="gbw0nadR2lrwM5C2XNWw-158" value="Buscar el expediente" style="rhombus;whiteSpace=wrap;html=1;" vertex="1" parent="1">
          <mxGeometry x="637.5" y="1320" width="75" height="75" as="geometry" />
        </mxCell>
        <mxCell id="gbw0nadR2lrwM5C2XNWw-160" value="Retornar Error: NotFound 404" style="rounded=0;whiteSpace=wrap;html=1;" vertex="1" parent="1">
          <mxGeometry x="495" y="1337.5" width="80" height="40" as="geometry" />
        </mxCell>
        <mxCell id="gbw0nadR2lrwM5C2XNWw-165" style="edgeStyle=orthogonalEdgeStyle;rounded=0;orthogonalLoop=1;jettySize=auto;html=1;" edge="1" parent="1" source="gbw0nadR2lrwM5C2XNWw-164" target="gbw0nadR2lrwM5C2XNWw-166">
          <mxGeometry relative="1" as="geometry">
            <mxPoint x="675" y="1570" as="targetPoint" />
          </mxGeometry>
        </mxCell>
        <mxCell id="gbw0nadR2lrwM5C2XNWw-164" value="Validar el updateRecordDto y actualizar el expediente" style="rounded=0;whiteSpace=wrap;html=1;" vertex="1" parent="1">
          <mxGeometry x="622.5" y="1455" width="105" height="50" as="geometry" />
        </mxCell>
        <mxCell id="gbw0nadR2lrwM5C2XNWw-166" value="Retornar el expediente actualizado: Record" style="rounded=0;whiteSpace=wrap;html=1;" vertex="1" parent="1">
          <mxGeometry x="622.5" y="1540" width="105" height="50" as="geometry" />
        </mxCell>
        <mxCell id="gbw0nadR2lrwM5C2XNWw-168" style="edgeStyle=orthogonalEdgeStyle;rounded=0;orthogonalLoop=1;jettySize=auto;html=1;" edge="1" parent="1" source="gbw0nadR2lrwM5C2XNWw-167" target="gbw0nadR2lrwM5C2XNWw-169">
          <mxGeometry relative="1" as="geometry">
            <mxPoint x="190" y="1930" as="targetPoint" />
          </mxGeometry>
        </mxCell>
        <mxCell id="gbw0nadR2lrwM5C2XNWw-167" value="&lt;div&gt;updateStatus&lt;/div&gt;&lt;div&gt;param: recordId&lt;/div&gt;&lt;div&gt;body: estado&lt;br&gt;&lt;/div&gt;" style="text;html=1;align=center;verticalAlign=middle;resizable=0;points=[];autosize=1;strokeColor=none;fillColor=none;" vertex="1" parent="1">
          <mxGeometry x="135" y="1843" width="110" height="60" as="geometry" />
        </mxCell>
        <mxCell id="gbw0nadR2lrwM5C2XNWw-170" style="edgeStyle=orthogonalEdgeStyle;rounded=0;orthogonalLoop=1;jettySize=auto;html=1;" edge="1" parent="1" source="gbw0nadR2lrwM5C2XNWw-169" target="gbw0nadR2lrwM5C2XNWw-171">
          <mxGeometry relative="1" as="geometry">
            <mxPoint x="190" y="2020" as="targetPoint" />
          </mxGeometry>
        </mxCell>
        <mxCell id="gbw0nadR2lrwM5C2XNWw-169" value="Ingresar el recordId y el estado" style="shape=parallelogram;perimeter=parallelogramPerimeter;whiteSpace=wrap;html=1;fixedSize=1;" vertex="1" parent="1">
          <mxGeometry x="140" y="1930" width="100" height="50" as="geometry" />
        </mxCell>
        <mxCell id="gbw0nadR2lrwM5C2XNWw-172" style="edgeStyle=orthogonalEdgeStyle;rounded=0;orthogonalLoop=1;jettySize=auto;html=1;" edge="1" parent="1" source="gbw0nadR2lrwM5C2XNWw-171" target="gbw0nadR2lrwM5C2XNWw-173">
          <mxGeometry relative="1" as="geometry">
            <mxPoint x="70" y="2050" as="targetPoint" />
          </mxGeometry>
        </mxCell>
        <mxCell id="gbw0nadR2lrwM5C2XNWw-174" value="No" style="edgeLabel;html=1;align=center;verticalAlign=middle;resizable=0;points=[];" vertex="1" connectable="0" parent="gbw0nadR2lrwM5C2XNWw-172">
          <mxGeometry x="-0.0728" relative="1" as="geometry">
            <mxPoint as="offset" />
          </mxGeometry>
        </mxCell>
        <mxCell id="gbw0nadR2lrwM5C2XNWw-175" style="edgeStyle=orthogonalEdgeStyle;rounded=0;orthogonalLoop=1;jettySize=auto;html=1;" edge="1" parent="1" target="gbw0nadR2lrwM5C2XNWw-176">
          <mxGeometry relative="1" as="geometry">
            <mxPoint x="190" y="2132.5" as="targetPoint" />
            <mxPoint x="190" y="2072.5" as="sourcePoint" />
          </mxGeometry>
        </mxCell>
        <mxCell id="gbw0nadR2lrwM5C2XNWw-171" value="Buscar el expediente" style="rhombus;whiteSpace=wrap;html=1;" vertex="1" parent="1">
          <mxGeometry x="150" y="2010" width="80" height="80" as="geometry" />
        </mxCell>
        <mxCell id="gbw0nadR2lrwM5C2XNWw-173" value="Retornar Error: NotFound 404" style="rounded=0;whiteSpace=wrap;html=1;" vertex="1" parent="1">
          <mxGeometry x="10" y="2027.5" width="90" height="45" as="geometry" />
        </mxCell>
        <mxCell id="gbw0nadR2lrwM5C2XNWw-177" style="edgeStyle=orthogonalEdgeStyle;rounded=0;orthogonalLoop=1;jettySize=auto;html=1;" edge="1" parent="1" source="gbw0nadR2lrwM5C2XNWw-176" target="gbw0nadR2lrwM5C2XNWw-178">
          <mxGeometry relative="1" as="geometry">
            <mxPoint x="100" y="2142.5" as="targetPoint" />
          </mxGeometry>
        </mxCell>
        <mxCell id="gbw0nadR2lrwM5C2XNWw-176" value="Actualizar el estado del expediente" style="rounded=0;whiteSpace=wrap;html=1;" vertex="1" parent="1">
          <mxGeometry x="145" y="2120" width="90" height="45" as="geometry" />
        </mxCell>
        <mxCell id="gbw0nadR2lrwM5C2XNWw-178" value="Retornar el expediente actualizado Record" style="rounded=0;whiteSpace=wrap;html=1;" vertex="1" parent="1">
          <mxGeometry x="15" y="2125" width="70" height="35" as="geometry" />
        </mxCell>
        <mxCell id="gbw0nadR2lrwM5C2XNWw-180" style="edgeStyle=orthogonalEdgeStyle;rounded=0;orthogonalLoop=1;jettySize=auto;html=1;" edge="1" parent="1" source="gbw0nadR2lrwM5C2XNWw-179" target="gbw0nadR2lrwM5C2XNWw-181">
          <mxGeometry relative="1" as="geometry">
            <mxPoint x="389.9999999999999" y="1920" as="targetPoint" />
          </mxGeometry>
        </mxCell>
        <mxCell id="gbw0nadR2lrwM5C2XNWw-179" value="&lt;div&gt;delete&lt;/div&gt;&lt;div&gt;param: recordId&lt;br&gt;&lt;/div&gt;" style="text;html=1;align=center;verticalAlign=middle;resizable=0;points=[];autosize=1;strokeColor=none;fillColor=none;" vertex="1" parent="1">
          <mxGeometry x="335" y="1843" width="110" height="40" as="geometry" />
        </mxCell>
        <mxCell id="gbw0nadR2lrwM5C2XNWw-182" style="edgeStyle=orthogonalEdgeStyle;rounded=0;orthogonalLoop=1;jettySize=auto;html=1;" edge="1" parent="1" source="gbw0nadR2lrwM5C2XNWw-181" target="gbw0nadR2lrwM5C2XNWw-183">
          <mxGeometry relative="1" as="geometry">
            <mxPoint x="389.9999999999999" y="2010" as="targetPoint" />
          </mxGeometry>
        </mxCell>
        <mxCell id="gbw0nadR2lrwM5C2XNWw-181" value="Ingresar el recordId" style="shape=parallelogram;perimeter=parallelogramPerimeter;whiteSpace=wrap;html=1;fixedSize=1;" vertex="1" parent="1">
          <mxGeometry x="340" y="1920" width="100" height="50" as="geometry" />
        </mxCell>
        <mxCell id="gbw0nadR2lrwM5C2XNWw-184" style="edgeStyle=orthogonalEdgeStyle;rounded=0;orthogonalLoop=1;jettySize=auto;html=1;" edge="1" parent="1" source="gbw0nadR2lrwM5C2XNWw-183" target="gbw0nadR2lrwM5C2XNWw-190">
          <mxGeometry relative="1" as="geometry">
            <mxPoint x="389.9999999999999" y="2120" as="targetPoint" />
          </mxGeometry>
        </mxCell>
        <mxCell id="gbw0nadR2lrwM5C2XNWw-188" value="Si" style="edgeLabel;html=1;align=center;verticalAlign=middle;resizable=0;points=[];" vertex="1" connectable="0" parent="gbw0nadR2lrwM5C2XNWw-184">
          <mxGeometry x="-0.2396" relative="1" as="geometry">
            <mxPoint x="10" y="-9" as="offset" />
          </mxGeometry>
        </mxCell>
        <mxCell id="gbw0nadR2lrwM5C2XNWw-185" style="edgeStyle=orthogonalEdgeStyle;rounded=0;orthogonalLoop=1;jettySize=auto;html=1;" edge="1" parent="1" source="gbw0nadR2lrwM5C2XNWw-183" target="gbw0nadR2lrwM5C2XNWw-186">
          <mxGeometry relative="1" as="geometry">
            <mxPoint x="309.9999999999999" y="2040" as="targetPoint" />
          </mxGeometry>
        </mxCell>
        <mxCell id="gbw0nadR2lrwM5C2XNWw-187" value="No" style="edgeLabel;html=1;align=center;verticalAlign=middle;resizable=0;points=[];" vertex="1" connectable="0" parent="gbw0nadR2lrwM5C2XNWw-185">
          <mxGeometry x="0.5135" relative="1" as="geometry">
            <mxPoint as="offset" />
          </mxGeometry>
        </mxCell>
        <mxCell id="gbw0nadR2lrwM5C2XNWw-183" value="Buscar el expediente" style="rhombus;whiteSpace=wrap;html=1;" vertex="1" parent="1">
          <mxGeometry x="349.9999999999999" y="2000" width="80" height="80" as="geometry" />
        </mxCell>
        <mxCell id="gbw0nadR2lrwM5C2XNWw-186" value="Retornar Error: NotFound 404" style="rounded=0;whiteSpace=wrap;html=1;" vertex="1" parent="1">
          <mxGeometry x="245" y="2020" width="80" height="40" as="geometry" />
        </mxCell>
        <mxCell id="gbw0nadR2lrwM5C2XNWw-191" style="edgeStyle=orthogonalEdgeStyle;rounded=0;orthogonalLoop=1;jettySize=auto;html=1;" edge="1" parent="1" source="gbw0nadR2lrwM5C2XNWw-190" target="gbw0nadR2lrwM5C2XNWw-192">
          <mxGeometry relative="1" as="geometry">
            <mxPoint x="450" y="2127.5" as="targetPoint" />
          </mxGeometry>
        </mxCell>
        <mxCell id="gbw0nadR2lrwM5C2XNWw-190" value="Eliminar el expediente" style="rounded=0;whiteSpace=wrap;html=1;" vertex="1" parent="1">
          <mxGeometry x="355" y="2110" width="70" height="35" as="geometry" />
        </mxCell>
        <mxCell id="gbw0nadR2lrwM5C2XNWw-192" value="Retornar message: &quot;Expediente eliminado con exito&quot;" style="rounded=0;whiteSpace=wrap;html=1;" vertex="1" parent="1">
          <mxGeometry x="445" y="2106.25" width="85" height="42.5" as="geometry" />
        </mxCell>
        <mxCell id="gbw0nadR2lrwM5C2XNWw-194" style="edgeStyle=orthogonalEdgeStyle;rounded=0;orthogonalLoop=1;jettySize=auto;html=1;" edge="1" parent="1" source="gbw0nadR2lrwM5C2XNWw-193" target="gbw0nadR2lrwM5C2XNWw-196">
          <mxGeometry relative="1" as="geometry">
            <mxPoint x="680" y="1920" as="targetPoint" />
          </mxGeometry>
        </mxCell>
        <mxCell id="gbw0nadR2lrwM5C2XNWw-193" value="&lt;div&gt;deleteAll&lt;/div&gt;" style="text;html=1;align=center;verticalAlign=middle;resizable=0;points=[];autosize=1;strokeColor=none;fillColor=none;" vertex="1" parent="1">
          <mxGeometry x="645" y="1838" width="70" height="30" as="geometry" />
        </mxCell>
        <mxCell id="gbw0nadR2lrwM5C2XNWw-197" style="edgeStyle=orthogonalEdgeStyle;rounded=0;orthogonalLoop=1;jettySize=auto;html=1;" edge="1" parent="1" source="gbw0nadR2lrwM5C2XNWw-196" target="gbw0nadR2lrwM5C2XNWw-198">
          <mxGeometry relative="1" as="geometry">
            <mxPoint x="680" y="2000" as="targetPoint" />
          </mxGeometry>
        </mxCell>
        <mxCell id="gbw0nadR2lrwM5C2XNWw-196" value="Eliminar todos los expedientes" style="rounded=0;whiteSpace=wrap;html=1;" vertex="1" parent="1">
          <mxGeometry x="620" y="1903" width="120" height="60" as="geometry" />
        </mxCell>
        <mxCell id="gbw0nadR2lrwM5C2XNWw-198" value="Retornar message: &quot;Expedientes eliminados con exito&quot;" style="rounded=0;whiteSpace=wrap;html=1;" vertex="1" parent="1">
          <mxGeometry x="620" y="1990" width="120" height="60" as="geometry" />
        </mxCell>
      </root>
    </mxGraphModel>
  </diagram>
</mxfile>
